<svg width="375" height="812" viewBox="0 0 375 812" fill="none" xmlns="http://www.w3.org/2000/svg">
<g opacity="0.05">
  <path d="M50.7667 14.3667C50.7667 8.83333 48.6334 3.76667 45.1667 0H43C40.1667 1.1 32.6 4.9 32.1334 13.8333H30V0H28.9V13.8333H26.7667C26.5334 5.46667 20.1 1.5 16.7667 0H13.7334C10.3 3.8 8.16669 8.83333 8.16669 14.3667C8.16669 19.7667 10.2 24.7333 13.5334 28.4667C13.5667 28.5333 13.6334 28.6 13.7 28.6333C17.6 32.9333 23.2334 35.6333 29.5 35.6333C35.5334 35.6333 40.9667 33.1333 44.8334 29.1H44.8667C44.9 29.1 44.9334 29.1 44.9334 29.1C45.2 29.1 45.4334 28.9 45.4667 28.6333C45.4667 28.5333 45.4667 28.4667 45.4667 28.4C48.7667 24.7 50.7667 19.7667 50.7667 14.3667ZM14.8667 0.433333C16.7 1 25.3667 4.33333 25.7 13.8333H9.26669C9.40002 8.63333 11.5334 3.93333 14.8667 0.433333ZM14.2334 27.6333C11.2334 24.2 9.40002 19.7667 9.26669 14.9333H25.7C25.4 25 16.1 27.3 14.2334 27.6333ZM28.9334 34.5667C23.5334 34.4333 18.6667 32.1667 15.1 28.5667C18.0334 27.8 26.5 24.8 26.8 14.9333H28.9334V34.5667ZM44.3334 0.7C47.5334 4.16667 49.5334 8.76667 49.6667 13.8333H33.2334C33.8334 4 43.4 0.966667 44.3334 0.7ZM30.0334 34.5667V14.9333H32.1334C32.2334 24.8 40.3334 28 43.5667 28.8667C40.0334 32.2667 35.2667 34.4333 30.0334 34.5667ZM44.4334 27.9333C42.1 27.4 33.3334 24.7333 33.2334 14.9H49.6667C49.5334 19.9333 47.5667 24.5 44.4334 27.9333Z" fill="white"/>
  <path d="M43.0333 812C43.2 811.933 43.3667 811.867 43.4667 811.833C39.9667 808.467 35.2333 806.333 30 806.2V812H28.9V806.2C23.8333 806.333 19.2 808.367 15.7333 811.567C16.0333 811.667 16.3667 811.833 16.7667 812H13.7333C13.9 811.833 14.0333 811.667 14.2 811.533C14.2333 811.433 14.3 811.367 14.4 811.333C18.2667 807.467 23.6 805.067 29.4667 805.067C35.6667 805.067 41.2667 807.733 45.1667 812H43.0333Z" fill="white"/>
  <path d="M135.767 63.4333C134.533 63.0666 133.233 63.1999 132.1 63.8333C129.767 65.0999 128.9 68.0666 130.167 70.3999C130.8 71.5333 131.8 72.3666 133.033 72.7333C133.467 72.8666 133.933 72.9333 134.4 72.9333C135.2 72.9333 136 72.7333 136.7 72.3333C137.833 71.6999 138.667 70.6999 139.033 69.4666C139.4 68.2333 139.267 66.9333 138.633 65.7999C138 64.6666 137 63.7999 135.767 63.4333ZM137.967 69.1333C137.7 70.0999 137.067 70.8666 136.167 71.3666C135.3 71.8333 134.3 71.9666 133.333 71.6666C132.367 71.3666 131.6 70.7666 131.1 69.8666C130.1 68.0666 130.767 65.7999 132.567 64.7999C133.433 64.3333 134.433 64.1999 135.4 64.4999C136.367 64.7666 137.133 65.3999 137.633 66.2999C138.133 67.1666 138.267 68.1666 137.967 69.1333Z" fill="white"/>
  <path d="M146.3 58.4334L142.2 50.9334C141.8 50.2334 141.167 49.7334 140.4 49.5C139.633 49.2667 138.833 49.3667 138.1 49.7334L136.167 50.8L134.767 47.2C134.6 46.8 134.4 46.3667 134.2 46L118.5 3.50002C117.967 2.03335 116.733 1.03335 115.2 0.733355C113.667 0.466688 112.167 1.00002 111.167 2.20002L106.033 8.33335C104.333 10.3334 101.967 11.6334 99.4 11.9667L91.3 13.0667C89.7667 13.2667 88.5 14.2334 87.9 15.6667C87.3 17.1 87.5 18.7 88.4333 19.9334L116 56.2C116.167 56.5334 116.367 56.8334 116.6 57.1334L118.867 60.2667L116.933 61.3334C115.467 62.1334 114.933 63.9667 115.733 65.4L119.833 72.9L121.633 76.2C121.733 76.3667 121.933 76.5 122.1 76.5C122.2 76.5 122.267 76.4667 122.367 76.4334C122.633 76.3 122.733 75.9667 122.6 75.7L121.067 72.9L126.067 70.1667L129.267 74.5667C130.733 76.6 133.067 77.7 135.433 77.7C136.667 77.7 137.933 77.4 139.067 76.7667C142.4 74.9334 143.9 70.8667 142.5 67.3334L140.533 62.2667L145.533 59.5334L147.067 62.3334C147.167 62.5 147.367 62.6334 147.533 62.6334C147.633 62.6334 147.7 62.6 147.8 62.5667C148.067 62.4334 148.167 62.1 148.033 61.8334L146.3 58.4334ZM89.3333 19.2667C88.6333 18.3334 88.5 17.1667 88.9333 16.1C89.3667 15.0334 90.3333 14.3 91.4667 14.1667L99.5667 13.0667C102.433 12.7 105.033 11.2667 106.9 9.03336L112.067 2.93335C112.7 2.20002 113.567 1.80002 114.5 1.80002C114.7 1.80002 114.867 1.80002 115.067 1.86669C116.2 2.06669 117.1 2.83335 117.5 3.90002L132.1 43.3667C131.933 43.2334 131.767 43.1 131.6 43C131.567 42.9667 131.5 42.9334 131.467 42.9C131.3 42.7667 131.133 42.6667 130.967 42.5667C130.933 42.5334 130.9 42.5334 130.867 42.5C130.7 42.4 130.533 42.3 130.4 42.2334C130.367 42.2 130.3 42.2 130.267 42.1667C130.1 42.0667 129.9 42 129.7 41.9C129.667 41.8667 129.633 41.8667 129.567 41.8334C129.4 41.7667 129.233 41.7 129.067 41.6334C129.033 41.6334 129 41.6 128.967 41.6C128.767 41.5334 128.567 41.4667 128.367 41.4334C128.333 41.4334 128.267 41.4 128.233 41.4C128.033 41.3667 127.833 41.3 127.667 41.2667H127.633C127.433 41.2334 127.2 41.2 127 41.1667C126.967 41.1667 126.9 41.1667 126.867 41.1667C126.667 41.1334 126.433 41.1334 126.233 41.1334H126.2C126 41.1334 125.8 41.1334 125.6 41.1334C125.567 41.1334 125.5 41.1334 125.467 41.1334C125.267 41.1334 125.033 41.1667 124.833 41.1667C124.8 41.1667 124.767 41.1667 124.733 41.1667C124.533 41.2 124.333 41.2334 124.167 41.2667C124.133 41.2667 124.1 41.2667 124.067 41.3C123.867 41.3334 123.633 41.4 123.433 41.4334C123.4 41.4334 123.367 41.4667 123.3 41.4667C123.1 41.5334 122.9 41.5667 122.733 41.6334C122.7 41.6334 122.7 41.6334 122.667 41.6667C122.467 41.7334 122.267 41.8334 122.067 41.9C122.033 41.9334 121.967 41.9334 121.933 41.9667C121.733 42.0667 121.533 42.1667 121.333 42.2667L119.867 43.0667C117.6 44.3 115.967 46.3667 115.233 48.8334C115.2 49 115.133 49.1667 115.1 49.3334C115.1 49.4 115.067 49.4334 115.067 49.5C115.033 49.6 115.033 49.7334 115 49.8334C115 49.9 114.967 49.9667 114.967 50.0334C114.967 50.1334 114.933 50.2334 114.933 50.3334C114.933 50.4 114.933 50.4667 114.9 50.5334C114.9 50.6334 114.867 50.7334 114.867 50.8334C114.867 50.9 114.867 50.9667 114.867 51.0334C114.867 51.1334 114.867 51.2334 114.867 51.3C114.867 51.3667 114.867 51.4334 114.867 51.5C114.867 51.6 114.867 51.7 114.867 51.7667C114.867 51.8334 114.867 51.9 114.867 51.9667C114.867 52.0667 114.867 52.1334 114.9 52.2334C114.9 52.3 114.9 52.3667 114.933 52.4334C114.933 52.5334 114.967 52.6 114.967 52.7C114.967 52.7334 114.967 52.7667 114.967 52.8334L89.3333 19.2667ZM120.567 71.9L116.733 64.8667C116.233 63.9334 116.567 62.7667 117.5 62.2667L119.567 61.1334L121.2 63.4L125.433 69.2L120.567 71.9ZM138.567 75.7334C135.7 77.3 132.1 76.5 130.167 73.8667L126.667 69.1L121.533 62L117.5 56.5C117.3 56.2334 117.133 55.9334 116.967 55.6334C115.833 53.6334 115.567 51.3334 116.2 49.1334C116.833 46.9334 118.267 45.1334 120.3 44.0334L121.767 43.2334C121.9 43.1667 122.067 43.0667 122.2 43C122.233 42.9667 122.3 42.9667 122.333 42.9334C122.433 42.9 122.533 42.8334 122.633 42.8C122.7 42.7667 122.733 42.7667 122.8 42.7334C122.9 42.7 123 42.6667 123.133 42.6334C123.167 42.6334 123.233 42.6 123.267 42.6C123.433 42.5667 123.567 42.5 123.733 42.4667C123.767 42.4667 123.8 42.4667 123.833 42.4334C123.967 42.4 124.067 42.3667 124.2 42.3667C124.267 42.3667 124.3 42.3334 124.367 42.3334C124.467 42.3 124.567 42.3 124.667 42.3C124.733 42.3 124.767 42.3 124.833 42.2667C124.933 42.2667 125.067 42.2334 125.167 42.2334C125.2 42.2334 125.267 42.2334 125.3 42.2334C125.467 42.2334 125.6 42.2334 125.767 42.2334C125.8 42.2334 125.833 42.2334 125.9 42.2334C126.033 42.2334 126.167 42.2334 126.267 42.2334C126.333 42.2334 126.367 42.2334 126.433 42.2334C126.567 42.2334 126.7 42.2667 126.833 42.2667C126.867 42.2667 126.9 42.2667 126.933 42.2667C127.1 42.3 127.267 42.3 127.4 42.3334C127.433 42.3334 127.5 42.3667 127.533 42.3667C127.667 42.4 127.767 42.4334 127.9 42.4334C127.967 42.4334 128 42.4667 128.067 42.4667C128.2 42.5 128.367 42.5334 128.5 42.6H128.533C128.7 42.6667 128.833 42.7 129 42.7667C129.033 42.8 129.1 42.8 129.133 42.8334C129.233 42.8667 129.367 42.9334 129.467 42.9667C129.5 43 129.567 43 129.6 43.0334C129.733 43.1 129.9 43.1667 130.033 43.2667C130.067 43.2667 130.067 43.3 130.1 43.3C130.233 43.3667 130.333 43.4334 130.467 43.5334C130.5 43.5667 130.567 43.6 130.6 43.6C130.7 43.6667 130.8 43.7334 130.933 43.8334C130.967 43.8667 131 43.8667 131.033 43.9C131.167 44 131.3 44.1 131.433 44.2C131.467 44.2334 131.5 44.2667 131.533 44.2667C131.633 44.3667 131.733 44.4334 131.833 44.5334C131.867 44.5667 131.9 44.6 131.933 44.6334C132.033 44.7334 132.133 44.8334 132.233 44.9334C132.267 44.9667 132.267 44.9667 132.3 45C132.4 45.1334 132.533 45.2667 132.633 45.4C132.667 45.4334 132.7 45.4667 132.7 45.5C132.767 45.6 132.867 45.7 132.933 45.8334C132.967 45.8667 133 45.9 133.033 45.9667C133.133 46.1 133.233 46.2667 133.3 46.4C133.5 46.7667 133.7 47.1334 133.833 47.5334L136.4 54.1334L139.467 62.0667L141.6 67.5667C142.7 70.7 141.433 74.1667 138.567 75.7334ZM140.2 61.1334L137.033 52.9667L136.567 51.8L138.633 50.6667C139.067 50.4334 139.6 50.3667 140.1 50.5C140.6 50.6334 141 50.9667 141.233 51.4L145.067 58.4334L140.2 61.1334Z" fill="white"/>
  <path d="M122.533 39.3C122.633 39.5 122.833 39.6333 123.033 39.6333C123.1 39.6333 123.167 39.6333 123.233 39.6C123.5 39.5 123.667 39.1667 123.533 38.9L110.967 7.53333C110.867 7.26666 110.533 7.1 110.267 7.23333C110 7.33333 109.833 7.66666 109.967 7.93333L122.533 39.3Z" fill="white"/>
  <path d="M115.967 43.5C116.067 43.5 116.2 43.4667 116.3 43.4C116.533 43.2333 116.6 42.8667 116.433 42.6333L96.8 15.1333C96.6333 14.9 96.2667 14.8333 96.0333 15C95.8 15.1667 95.7334 15.5333 95.9 15.7667L115.533 43.2667C115.633 43.4333 115.8 43.5 115.967 43.5Z" fill="white"/>
  <path d="M170.967 44.1667C169.733 43.8 168.433 43.9333 167.3 44.5667C166.167 45.2 165.333 46.2 164.967 47.4333C164.6 48.6667 164.733 49.9667 165.367 51.1C166.233 52.7 167.9 53.6 169.6 53.6C170.367 53.6 171.167 53.4 171.9 53C173.033 52.3667 173.867 51.3667 174.233 50.1333C174.6 48.9 174.467 47.6 173.833 46.4667C173.233 45.3667 172.2 44.5333 170.967 44.1667ZM173.2 49.8667C172.933 50.8333 172.3 51.6 171.4 52.1C169.6 53.1 167.333 52.4333 166.333 50.6333C165.867 49.7667 165.733 48.7667 166.033 47.8C166.3 46.8333 166.933 46.0667 167.833 45.5667C168.7 45.1 169.7 44.9667 170.667 45.2667C171.633 45.5333 172.4 46.1667 172.9 47.0667C173.367 47.9 173.467 48.9 173.2 49.8667Z" fill="white"/>
  <path d="M183.3 42.4667L181.5 39.1667L177.4 31.6667C177.033 30.9667 176.367 30.4667 175.6 30.2333C174.833 30 174 30.1 173.3 30.5L171.367 31.5667L170 27.9333C169.833 27.5333 169.633 27.1 169.433 26.7333L159.533 0H158.367L167.3 24.1C167.133 23.9667 166.967 23.8333 166.8 23.7C166.767 23.6667 166.7 23.6333 166.667 23.6C166.5 23.4667 166.333 23.3667 166.167 23.2667C166.133 23.2667 166.1 23.2333 166.067 23.2C165.9 23.1 165.733 23 165.567 22.9333C165.533 22.9 165.467 22.9 165.433 22.8667C165.267 22.7667 165.067 22.7 164.867 22.6L164.733 22.5667C164.567 22.5 164.4 22.4333 164.233 22.3667C164.2 22.3667 164.167 22.3333 164.133 22.3333C163.933 22.2667 163.733 22.2 163.533 22.1667C163.5 22.1667 163.433 22.1333 163.4 22.1333C163.2 22.1 163.033 22.0333 162.833 22C162.8 22 162.8 22 162.767 22C162.567 21.9667 162.367 21.9333 162.133 21.9C162.067 21.9 162.033 21.9 162 21.8667C161.8 21.8333 161.567 21.8333 161.367 21.8333C161.367 21.8333 161.333 21.8333 161.3 21.8333C161.1 21.8333 160.9 21.8333 160.7 21.8333C160.667 21.8333 160.6 21.8333 160.567 21.8333C160.367 21.8333 160.133 21.8667 159.933 21.8667C159.9 21.8667 159.867 21.8667 159.833 21.8667C159.633 21.9 159.467 21.9 159.267 21.9667C159.233 21.9667 159.2 21.9667 159.167 22C158.967 22.0333 158.733 22.1 158.533 22.1333C158.5 22.1333 158.433 22.1667 158.4 22.1667C158.2 22.2333 158.033 22.2667 157.833 22.3333C157.8 22.3333 157.767 22.3667 157.767 22.3667C157.567 22.4333 157.367 22.5333 157.167 22.6C157.133 22.6333 157.067 22.6333 157.033 22.6667C156.833 22.7667 156.633 22.8667 156.433 22.9667L154.967 23.7667C152.7 25 151.067 27.0667 150.367 29.5333C150.333 29.7 150.267 29.8667 150.233 30.0333C150.233 30.1 150.2 30.1333 150.2 30.2C150.167 30.3 150.167 30.4333 150.133 30.5333C150.133 30.6 150.1 30.6667 150.1 30.7333C150.1 30.8333 150.067 30.9333 150.067 31.0333C150.067 31.1 150.067 31.1667 150.033 31.2333C150.033 31.3333 150 31.4333 150 31.5333C150 31.6 150 31.6667 150 31.7333C150 31.8333 150 31.9333 150 32V32.2C150 32.3 150 32.4 150 32.4667C150 32.5333 150 32.6 150 32.7C150 32.8 150 32.8667 150 32.9667C150 33.0333 150 33.1 150.033 33.1667C150.033 33.2667 150.067 33.3333 150.067 33.4333C150.067 33.4667 150.067 33.5333 150.067 33.5667L124.533 0H123.233C123.367 0.233333 123.5 0.466667 123.667 0.666667L151.233 36.9667C151.4 37.3 151.6 37.6 151.833 37.9L154.1 41.0333L152.167 42.1C150.7 42.9 150.167 44.7333 150.967 46.2L155.067 53.7L156.867 57C156.967 57.1667 157.167 57.3 157.367 57.3C157.467 57.3 157.533 57.2667 157.633 57.2333C157.9 57.1 158 56.7667 157.867 56.5L156.333 53.7L161.333 50.9667L164.533 55.3667C166 57.4 168.333 58.5 170.7 58.5C171.933 58.5 173.2 58.2 174.333 57.5667C177.667 55.7333 179.167 51.6667 177.767 48.1333L175.8 43.0667L180.8 40.3333L182.333 43.1333C182.433 43.3 182.633 43.4333 182.833 43.4333C182.933 43.4333 183 43.4 183.1 43.3667C183.367 43.0667 183.467 42.7333 183.3 42.4667ZM155.767 52.6333L151.933 45.6C151.433 44.6667 151.767 43.5333 152.7 43L154.767 41.8667L156.1 43.6667L160.667 49.9333L155.767 52.6333ZM176.733 48.4C177.9 51.4333 176.633 54.9 173.8 56.4667C170.933 58.0333 167.333 57.2333 165.4 54.6L161.9 49.8333L156.933 43.0333L152.7 37.2333C152.5 36.9667 152.3 36.6667 152.133 36.3667C151.033 34.3667 150.733 32.0667 151.367 29.8667C152 27.6667 153.433 25.8667 155.467 24.7667L156.933 23.9667C157.067 23.9 157.233 23.8 157.367 23.7333C157.4 23.7 157.467 23.7 157.5 23.6667C157.6 23.6333 157.7 23.5667 157.833 23.5333C157.9 23.5 157.933 23.5 158 23.4667C158.1 23.4333 158.2 23.4 158.333 23.3333C158.367 23.3333 158.433 23.3 158.467 23.3C158.633 23.2333 158.767 23.2 158.933 23.1667C158.967 23.1667 159 23.1667 159.033 23.1333C159.167 23.1 159.3 23.0667 159.4 23.0333C159.467 23.0333 159.5 23.0333 159.567 23C159.667 22.9667 159.767 22.9667 159.9 22.9667C159.967 22.9667 160 22.9667 160.067 22.9333C160.2 22.9333 160.3 22.9 160.433 22.9C160.467 22.9 160.5 22.9 160.533 22.9C160.7 22.9 160.833 22.9 161 22.9C161.033 22.9 161.067 22.9 161.1 22.9C161.233 22.9 161.367 22.9 161.5 22.9C161.567 22.9 161.6 22.9 161.633 22.9C161.767 22.9 161.9 22.9333 162.033 22.9333C162.067 22.9333 162.1 22.9333 162.133 22.9333C162.3 22.9667 162.467 22.9667 162.633 23C162.667 23 162.7 23 162.767 23.0333C162.9 23.0667 163.033 23.1 163.133 23.1333C163.167 23.1333 163.233 23.1667 163.267 23.1667C163.433 23.2 163.567 23.2667 163.733 23.3C163.9 23.3667 164.033 23.4 164.2 23.4667C164.233 23.4667 164.267 23.5 164.333 23.5333C164.467 23.6 164.567 23.6333 164.7 23.7C164.733 23.7 164.767 23.7333 164.8 23.7667C164.967 23.8333 165.1 23.9333 165.233 24C165.267 24 165.267 24.0333 165.267 24.0333C165.4 24.1 165.533 24.2 165.633 24.2667C165.667 24.3 165.7 24.3333 165.733 24.3333C165.833 24.4 165.967 24.5 166.067 24.5667C166.1 24.6 166.133 24.6 166.167 24.6333C166.3 24.7333 166.433 24.8333 166.567 24.9667C166.6 25 166.6 25 166.633 25.0333C166.733 25.1333 166.833 25.2333 166.933 25.3C166.967 25.3333 167 25.3667 167.033 25.4C167.133 25.5 167.233 25.6 167.333 25.7333C167.333 25.7333 167.367 25.7667 167.4 25.8C167.5 25.9333 167.633 26.0667 167.733 26.2C167.767 26.2333 167.8 26.2667 167.8 26.3C167.867 26.4 167.967 26.5 168.033 26.6333C168.067 26.6667 168.1 26.7333 168.133 26.7667C168.233 26.9 168.333 27.0667 168.4 27.2C168.6 27.5667 168.8 27.9667 168.933 28.3333L171.5 34.9333L174.567 42.8667L176.733 48.4ZM175.4 41.9L172.233 33.7333L171.767 32.5667L173.833 31.4333C174.267 31.2 174.8 31.1333 175.267 31.2667C175.767 31.4 176.167 31.7333 176.4 32.1667L180.233 39.2L175.4 41.9Z" fill="white"/>
  <path d="M158.433 20.3333C158.367 20.3667 158.3 20.3667 158.233 20.3667C158 20.3667 157.8 20.2333 157.733 20.0333L149.7 0H150.9L158.767 19.6333C158.867 19.9333 158.733 20.2333 158.433 20.3333Z" fill="white"/>
  <path d="M159.533 812H158.366L152.7 796.634C152.3 795.534 151.4 794.8 150.266 794.6C150.066 794.567 149.866 794.567 149.7 794.567C148.766 794.567 147.9 794.967 147.266 795.7L142.1 801.8C140.233 804 137.633 805.434 134.766 805.834L126.666 806.934C125.533 807.1 124.566 807.8 124.133 808.867C123.7 809.934 123.833 811.1 124.533 812.034H123.233C122.666 810.934 122.6 809.634 123.1 808.434C123.7 807 124.966 806.034 126.5 805.834L134.6 804.734C137.2 804.4 139.566 803.1 141.233 801.1L146.4 795C147.4 793.8 148.9 793.267 150.433 793.534C151.966 793.8 153.2 794.834 153.733 796.3L159.533 812Z" fill="white"/>
  <path d="M150.866 812H149.666L145.133 800.667C145.033 800.4 145.166 800.067 145.433 799.967C145.7 799.867 146.033 800 146.166 800.267L150.866 812Z" fill="white"/>
  <path d="M134.933 812H133.566L131.066 808.5C130.9 808.234 130.966 807.9 131.2 807.734C131.433 807.567 131.8 807.6 131.966 807.867L134.933 812Z" fill="white"/>
  <path d="M151.5 24.1333C151.4 24.2 151.3 24.2333 151.167 24.2333C151 24.2333 150.833 24.1667 150.733 24L133.6 0H134.967L151.667 23.3667C151.8 23.6333 151.767 23.9667 151.5 24.1333Z" fill="white"/>
  <path d="M226.333 51.6332C225.1 56.4665 221.133 59.6332 217.433 58.6999C217.067 58.5999 216.7 58.4665 216.333 58.2999C215.967 58.0665 215.167 57.5332 214.8 57.1665C214.767 57.1332 214.767 57.1332 214.733 57.0999C213.133 55.3999 212.333 52.6665 212.7 49.6999C212.767 49.2332 212.867 48.7332 212.967 48.2332C213.4 46.5665 214.167 45.0665 215.1 43.8999C216.667 41.9999 218.733 40.8999 220.833 40.9999C221.167 41.0332 221.533 41.0665 221.867 41.1665C225.567 42.1332 227.567 46.7999 226.333 51.6332Z" stroke="white" stroke-width="1.1" stroke-miterlimit="10" stroke-linecap="round" stroke-linejoin="round"/>
  <path d="M221.9 41.2C221.567 41.1 221.233 41.0666 220.867 41.0333C218.8 40.9333 216.7 42.0333 215.133 43.9333C214.167 45.1 213.4 46.5666 213 48.2666C212.867 48.7666 212.767 49.2333 212.733 49.7333C212.367 52.6666 213.167 55.4 214.767 57.1333C214.8 57.1666 214.8 57.1666 214.833 57.2C214.867 57.2333 214.867 57.2666 214.9 57.2666C215.2 57.5666 215.5 57.8333 215.833 58.0333C216 58.1333 216.167 58.2333 216.333 58.3333C215.467 57.9666 212.167 56.3 211.933 56.1333C210.033 54.8 208.9 52.2333 208.9 49.3333C208.9 49.1 208.9 48.8666 208.933 48.6666C208.933 48.4333 208.967 48.2 209 47.9333C209.067 47.4666 209.167 47 209.267 46.5333C209.767 44.5333 210.733 42.8333 211.967 41.6C213.733 39.8 216 38.9333 218.167 39.4666C219.233 39.5666 221.733 41.1 221.9 41.2Z" stroke="white" stroke-width="1.1" stroke-miterlimit="10" stroke-linecap="round" stroke-linejoin="round"/>
  <path d="M205.033 39.6332L204.667 39.4665L201.167 37.6999C199.467 36.8332 197.4 37.5332 196.567 39.2332C196.333 39.7332 196.2 40.2665 196.2 40.7665C196.2 42.0332 196.9 43.2332 198.1 43.8332L202.7 46.1332C201.033 48.2332 198.667 49.3665 196.333 48.8999C195.933 48.8332 195.567 48.6999 195.233 48.5332C195.067 48.4665 194.9 48.3665 194.733 48.2665C194.367 48.0665 194 47.7999 193.7 47.4999C193.667 47.4665 193.633 47.4332 193.6 47.3999C191.633 45.5332 190.667 42.1665 191.4 38.6665C192.3 34.2332 195.5 31.0665 198.9 31.0665C199.233 31.0665 199.6 31.0999 199.933 31.1665C203.1 31.8332 205.233 35.4665 205.033 39.6332Z" stroke="white" stroke-width="1.1" stroke-miterlimit="10" stroke-linecap="round" stroke-linejoin="round"/>
  <path d="M191.3 38.7C190.6 42.2 191.533 45.5666 193.533 47.4333C193.867 47.7666 194.767 48.3 195.2 48.5333C194.333 48.2 190.933 46.7 190.667 46.5666C188.067 44.9333 186.733 41.1333 187.533 37.1C188.5 32.2 192.333 28.8666 196.067 29.6C197.133 29.7 199.867 31.1666 199.867 31.1666C199.533 31.1 199.167 31.0666 198.833 31.0666C195.4 31.0666 192.2 34.2666 191.3 38.7Z" stroke="white" stroke-width="1.1" stroke-miterlimit="10" stroke-linecap="round" stroke-linejoin="round"/>
  <path d="M211.033 42.6667C210.033 44.1 209.6 45.3 209 47.8667C208.933 48.1 208.967 48.3667 208.967 48.6C208.967 48.8333 208.933 49.0667 208.933 49.2667L202.767 46.1667L202.667 46.1L198.067 43.8C196.867 43.2 196.167 41.9667 196.167 40.7333C196.167 40.2 196.3 39.7 196.533 39.2C197.4 37.5 199.467 36.8333 201.133 37.6667L204.633 39.4333L205 39.6L211.033 42.6667Z" stroke="white" stroke-width="1.1" stroke-miterlimit="10" stroke-linecap="round" stroke-linejoin="round"/>
  <path d="M208.933 48.6333C208.933 48.8666 208.933 49.1 208.933 49.3333H208.9C208.933 49.0666 208.933 48.8333 208.933 48.6333Z" stroke="white" stroke-width="1.1" stroke-miterlimit="10" stroke-linecap="round" stroke-linejoin="round"/>
  <path d="M209.567 27.5666C210.8 32.3999 214.767 35.5666 218.467 34.6332C218.833 34.5332 219.2 34.3999 219.567 34.2332C219.933 33.9999 220.733 33.4666 221.1 33.0999C221.133 33.0666 221.133 33.0666 221.167 33.0332C222.767 31.3332 223.567 28.5999 223.2 25.6332C223.133 25.1666 223.033 24.6666 222.933 24.1666C222.5 22.4999 221.733 20.9999 220.8 19.8332C219.233 17.9332 217.167 16.8332 215.067 16.9332C214.733 16.9666 214.367 16.9999 214.033 17.0999C210.333 18.0666 208.333 22.7666 209.567 27.5666Z" stroke="white" stroke-width="1.1" stroke-miterlimit="10" stroke-linecap="round" stroke-linejoin="round"/>
  <path d="M214 17.1332C214.333 17.0332 214.667 16.9999 215.033 16.9665C217.1 16.8665 219.2 17.9665 220.767 19.8665C221.733 21.0332 222.5 22.4999 222.9 24.1999C223.033 24.6999 223.133 25.1665 223.167 25.6665C223.533 28.5999 222.733 31.3332 221.133 33.0665C221.1 33.0999 221.1 33.0999 221.067 33.1332C221.033 33.1665 221.033 33.1999 221 33.1999C220.7 33.4999 220.4 33.7665 220.067 33.9665C219.9 34.0665 219.733 34.1665 219.567 34.2665C220.433 33.8999 223.733 32.2332 223.967 32.0665C225.867 30.7332 227 28.1665 227 25.2665C227 25.0332 227 24.7999 226.967 24.5999C226.967 24.3665 226.933 24.1332 226.9 23.8665C226.833 23.3999 226.733 22.9332 226.633 22.4665C226.133 20.4665 225.167 18.7665 223.933 17.5332C222.167 15.7332 219.9 14.8665 217.733 15.3999C216.667 15.5332 214.167 17.0332 214 17.1332Z" stroke="white" stroke-width="1.1" stroke-miterlimit="10" stroke-linecap="round" stroke-linejoin="round"/>
  <path d="M230.867 15.5999L231.233 15.4332L234.733 13.6665C236.433 12.7999 238.5 13.4999 239.333 15.1999C239.567 15.6999 239.7 16.2332 239.7 16.7332C239.7 17.9999 239 19.1999 237.8 19.7999L233.2 22.0999C234.867 24.1999 237.233 25.3332 239.567 24.8665C239.967 24.7999 240.333 24.6665 240.667 24.4999C240.833 24.4332 241 24.3332 241.167 24.2332C241.533 24.0332 241.9 23.7665 242.2 23.4665C242.233 23.4332 242.267 23.3999 242.3 23.3665C244.267 21.4999 245.233 18.1332 244.5 14.6332C243.6 10.1999 240.4 7.0332 237 7.0332C236.667 7.0332 236.3 7.06654 235.967 7.1332C232.8 7.79987 230.667 11.3999 230.867 15.5999Z" stroke="white" stroke-width="1.1" stroke-miterlimit="10" stroke-linecap="round" stroke-linejoin="round"/>
  <path d="M244.6 14.6332C245.3 18.1332 244.367 21.4999 242.367 23.3666C242.033 23.6999 241.133 24.2332 240.7 24.4666C241.567 24.1332 244.967 22.6332 245.233 22.4999C247.833 20.8666 249.167 17.0666 248.367 13.0332C247.4 8.13322 243.567 4.79989 239.833 5.53322C238.767 5.63322 236.033 7.09989 236.033 7.09989C236.367 7.03322 236.733 6.99989 237.067 6.99989C240.467 7.03322 243.7 10.1999 244.6 14.6332Z" stroke="white" stroke-width="1.1" stroke-miterlimit="10" stroke-linecap="round" stroke-linejoin="round"/>
  <path d="M224.867 18.6332C225.867 20.0665 226.3 21.2665 226.9 23.8332C226.967 24.0665 226.933 24.3332 226.933 24.5665C226.933 24.7999 226.967 25.0332 226.967 25.2332L233.133 22.1332L233.233 22.0665L237.833 19.7665C239.033 19.1665 239.733 17.9332 239.733 16.6999C239.733 16.1665 239.6 15.6665 239.367 15.1665C238.5 13.4665 236.433 12.7999 234.767 13.6332L231.267 15.3999L230.9 15.5665L224.867 18.6332Z" stroke="white" stroke-width="1.1" stroke-miterlimit="10" stroke-linecap="round" stroke-linejoin="round"/>
  <path d="M226.967 24.5666C226.967 24.7999 226.967 25.0332 226.967 25.2666H227C226.967 25.0332 226.967 24.7999 226.967 24.5666Z" stroke="white" stroke-width="1.1" stroke-miterlimit="10" stroke-linecap="round" stroke-linejoin="round"/>
  <path d="M277.3 8.13603e-06H275.7C280.733 4.53334 283.467 11.3 283.1 18.5667C282.6 28.1 277.067 36.5333 267.867 41.7333C254.2 49.4333 244.7 47.2667 241.567 45.0333C240.733 44.4333 240.4 43.8667 240.467 43.5667C240.533 43.3 240.967 43.1667 241.133 43.1C252.667 40.1333 260.8 33.5667 265.233 23.5333C268.867 15.4 269.133 7.13334 269.3 2.70001C269.333 1.50001 269.4 0.233341 269.5 -0.0333252H268.367C268.267 0.466675 268.233 1.30001 268.2 2.63334C267.9 11.5667 267.067 35.2667 240.867 42C239.733 42.3 239.433 42.9667 239.367 43.3333C239.2 44.1667 239.767 45.0667 240.933 45.9C242.533 47.0333 245.633 48.1667 250 48.1667C254.767 48.1667 261 46.8333 268.4 42.6667C277.933 37.3 283.667 28.5333 284.2 18.6C284.567 11.4667 282.033 4.73334 277.3 8.13603e-06Z" fill="white"/>
  <path d="M274.3 809.467C274.1 809.333 273.833 809.2 273.6 809.1C272.167 805.2 270.333 800.567 269.567 800.1C269.033 799.767 268.267 799.967 267.733 800.167C267 800.467 265.867 801.167 265.7 801.867C265.6 802.233 265.8 802.667 266.3 803.7C267.167 805.5 268.633 808.533 268.433 811.633C268.4 811.733 268.367 811.833 268.333 811.967H269.467C269.9 811 270.667 810.333 271.6 810.067C271.833 810 272.1 809.967 272.333 809.967C272.8 809.967 273.267 810.1 273.6 810.333C274.3 810.833 275 811.4 275.633 811.967H277.233C276.367 811.067 275.367 810.233 274.3 809.467ZM271.367 809.033C270.667 809.233 270.033 809.6 269.533 810.1C269.267 807.3 268.033 804.733 267.3 803.233C267.1 802.8 266.867 802.333 266.8 802.1C266.967 801.867 267.667 801.367 268.367 801.1C268.733 800.967 268.933 801 268.967 801C269.433 801.5 270.967 805.233 272.333 808.867C272.033 808.9 271.7 808.933 271.367 809.033Z" fill="white"/>
  <path d="M273.9 812H272.567C272.5 811.933 272.467 811.9 272.467 811.867C272.267 811.633 272.333 811.267 272.567 811.1C272.8 810.9 273.167 810.967 273.333 811.2C273.4 811.267 273.6 811.533 273.9 812Z" fill="white"/>
  <path d="M276.7 22.7333C273.5 36.0667 263 42.3 262.867 42.3667C262.767 42.4 262.7 42.4333 262.6 42.4333C262.4 42.4333 262.233 42.3333 262.133 42.1667C261.967 41.9 262.067 41.5667 262.333 41.4C262.433 41.3333 272.533 35.3333 275.633 22.4667C278.8 9.3 273.333 1.06667 272.567 0H273.9C275.5 2.46667 279.667 10.4667 276.7 22.7333Z" fill="white"/>
  <path d="M329.4 9.59993L324.633 48.5333C324.533 49.4333 323.9 50.1666 323.033 50.3999C321.367 50.8333 318.4 51.4333 314.667 51.1999C310.767 50.9333 308.033 50.5666 306.467 50.2666C305.5 50.0999 304.8 49.3333 304.667 48.3666L299.867 9.59993H299.9C300.433 10.9666 306.833 12.0333 314.633 12.0333C322.433 12.0333 328.833 10.9666 329.367 9.59993H329.4Z" stroke="white" stroke-width="1.1" stroke-miterlimit="10" stroke-linecap="round" stroke-linejoin="round"/>
  <path d="M329.4 9.39994C329.4 9.4666 329.4 9.53327 329.367 9.59993C328.833 10.9666 322.433 12.0333 314.633 12.0333C306.833 12.0333 300.433 10.9666 299.9 9.59993C299.867 9.53327 299.867 9.4666 299.867 9.39994C299.867 7.9666 306.467 6.7666 314.633 6.7666C322.8 6.7666 329.4 7.9666 329.4 9.39994Z" stroke="white" stroke-width="1.1" stroke-miterlimit="10" stroke-linecap="round" stroke-linejoin="round"/>
  <path d="M314.633 28.1665C320.395 28.1665 325.067 27.3905 325.067 26.4332C325.067 25.4759 320.395 24.6999 314.633 24.6999C308.871 24.6999 304.2 25.4759 304.2 26.4332C304.2 27.3905 308.871 28.1665 314.633 28.1665Z" stroke="white" stroke-width="1.1" stroke-miterlimit="10" stroke-linecap="round" stroke-linejoin="round"/>
  <path d="M304.233 26.4333C304.233 26.4333 306.567 45.9666 308.1 47.2666C309.8 48.7333 320.467 49.1333 321.833 47.7333C322.9 46.6666 325.067 26.4333 325.067 26.4333" stroke="white" stroke-width="1.1" stroke-miterlimit="10" stroke-linecap="round" stroke-linejoin="round"/>
  <path d="M86.6333 74.4333L86.2667 75.5333C83.3 84.6667 73.5 89.6667 64.3667 86.7C61.5 85.7667 59.9333 82.7 60.8667 79.8333C62.0333 76.2667 60.2 72.3 56.6333 71.1C54.8 70.5 52.9333 70.6667 51.3333 71.5C49.7667 72.3 48.5333 73.6667 47.9333 75.4667L47.8667 75.6333C46.9333 78.5 43.8667 80.0667 41 79.1333C31.8667 76.1667 26.8667 66.3667 29.8333 57.2333L30.2 56.1333C32.2 49.9333 38.8667 46.5333 45.0667 48.5667L79.0333 59.6C85.2333 61.5667 88.6333 68.2333 86.6333 74.4333Z" stroke="white" stroke-width="1.1" stroke-miterlimit="10" stroke-linecap="round" stroke-linejoin="round"/>
  <path d="M65.8333 82.2333C65.4333 82.1 65.2 81.6667 65.3333 81.2667C67.3 75.2333 64.0667 68.6667 58.1333 66.6667L58 66.6333C55.0667 65.7 51.9667 65.9333 49.2333 67.3333C46.5 68.7333 44.4667 71.1 43.5333 74.0333L43.4667 74.2C43.3333 74.6 42.9 74.8333 42.5 74.7C35.8333 72.5333 32.1667 65.3667 34.3333 58.7L34.7 57.6C35.9 53.8667 39.9333 51.8 43.6667 53.0333L77.6 64C81.3333 65.2 83.4 69.2333 82.1667 72.9667L81.8 74.0667C79.6667 80.7333 72.5 84.4 65.8333 82.2333Z" stroke="white" stroke-width="1.1" stroke-miterlimit="10" stroke-linecap="round" stroke-linejoin="round"/>
  <path d="M60.6667 80.6666C60.6667 80.6666 52.9 85.7666 47.5667 76.3999" stroke="white" stroke-width="1.1" stroke-miterlimit="10" stroke-linecap="round" stroke-linejoin="round"/>
  <path d="M58.6667 49.8L67.3 52.6C68.8667 53.1 69.7334 54.8 69.2334 56.3667L54.9 51.7C55.4 50.1333 57.1 49.3 58.6667 49.8Z" stroke="white" stroke-width="1.1" stroke-miterlimit="10" stroke-linecap="round" stroke-linejoin="round"/>
  <path d="M104.033 55.2L96.4667 78.5333C96.4 78.5 96.3 78.4667 96.2334 78.4333L90.6667 76.6333C90.5667 76.6 90.4667 76.5667 90.3667 76.5667L97.9334 53.2C98.1334 52.5667 98.8334 52.2 99.4667 52.4333L103.3 53.6667C103.9 53.9 104.233 54.5667 104.033 55.2Z" stroke="white" stroke-width="1.1" stroke-miterlimit="10" stroke-linecap="round" stroke-linejoin="round"/>
  <path d="M91.0334 95.3L87.6667 105.7C86.7 108.7 84.6 111 82 112.333C79.4 113.667 76.3 114 73.3 113.033C67.3 111.1 64.0334 104.667 65.9667 98.6667L66.2667 97.7L72.4 99.7L72.1 100.667C71.6667 101.967 71.8334 103.333 72.4 104.467C72.9667 105.6 74 106.5 75.3 106.933C77.9 107.767 80.7 106.367 81.5667 103.733L84.9334 93.3333C85.0334 93.4 85.1334 93.4333 85.2334 93.4667L90.8 95.2667C90.8667 95.2667 90.9334 95.2667 91.0334 95.3Z" stroke="white" stroke-width="1.1" stroke-miterlimit="10" stroke-linecap="round" stroke-linejoin="round"/>
  <path d="M76 97.3667L75.5667 98.7C75.2333 99.7 74.1667 100.233 73.1667 99.9L65.2667 97.3333C64.2667 97 63.7333 95.9333 64.0667 94.9333L64.5 93.6C64.8333 92.6 65.9 92.0667 66.8667 92.3667L74.7667 94.9333C75.7667 95.3 76.3 96.3667 76 97.3667Z" stroke="white" stroke-width="1.1" stroke-miterlimit="10" stroke-linecap="round" stroke-linejoin="round"/>
  <path d="M97.0667 80.1L92.4333 94.3667C92.2333 94.9667 91.6333 95.3333 91.0333 95.2667C90.9333 95.2667 90.8667 95.2333 90.7667 95.2L85.2 93.4C85.1 93.3667 85 93.3333 84.9 93.2667C84.4 92.9667 84.1667 92.3333 84.3333 91.7333L88.9667 77.4667C89.1667 76.8667 89.7333 76.5 90.3 76.5667C90.4 76.5667 90.5 76.6 90.6 76.6333L96.1667 78.4333C96.2667 78.4667 96.3333 78.5 96.4 78.5333C97 78.8667 97.2667 79.5 97.0667 80.1Z" stroke="white" stroke-width="1.1" stroke-miterlimit="10" stroke-linecap="round" stroke-linejoin="round"/>
  <path d="M135.467 110.667C135.467 118.267 129.3 124.4 121.733 124.4C114.133 124.4 108 118.233 108 110.667C108 105.1 111.3 100.3 116.067 98.1332C116.667 97.8666 117.267 97.6332 117.9 97.4666C119.133 97.0999 120.4 96.9332 121.733 96.9332C123.067 96.9332 124.367 97.1332 125.567 97.4666C126.2 97.6666 126.8 97.8666 127.4 98.1332C132.167 100.3 135.467 105.1 135.467 110.667Z" stroke="white" stroke-width="1.1" stroke-miterlimit="10" stroke-linecap="round" stroke-linejoin="round"/>
  <path d="M121.733 119.933C126.851 119.933 131 115.784 131 110.667C131 105.549 126.851 101.4 121.733 101.4C116.615 101.4 112.467 105.549 112.467 110.667C112.467 115.784 116.615 119.933 121.733 119.933Z" stroke="white" stroke-width="1.1" stroke-miterlimit="10" stroke-linecap="round" stroke-linejoin="round"/>
  <path d="M122.833 104.833H121.567C121.5 104.833 121.467 104.833 121.4 104.867L119 106.133C118.867 106.2 118.8 106.367 118.833 106.5L119.133 107.633C119.167 107.733 119.233 107.8 119.333 107.867C119.433 107.9 119.533 107.9 119.633 107.867L121.067 107.1V116.133C121.067 116.333 121.2 116.467 121.4 116.467H122.833C123.033 116.467 123.167 116.333 123.167 116.133V105.167C123.167 104.967 123.033 104.833 122.833 104.833Z" stroke="white" stroke-width="1.1" stroke-miterlimit="10" stroke-linecap="round" stroke-linejoin="round"/>
  <path d="M125.567 97.4666C124.333 97.0999 123.067 96.9332 121.733 96.9332C120.4 96.9332 119.1 97.1332 117.9 97.4666C117.267 97.6332 116.667 97.8666 116.067 98.1332L104.9 85.8332L112.967 79.3999L121.7 91.9332L125.567 97.4666Z" stroke="white" stroke-width="1.1" stroke-miterlimit="10" stroke-linecap="round" stroke-linejoin="round"/>
  <path d="M138.533 85.8332L127.367 98.1332C126.767 97.8666 126.167 97.6332 125.533 97.4666L121.7 91.9666L130.433 79.4332L138.533 85.8332Z" stroke="white" stroke-width="1.1" stroke-miterlimit="10" stroke-linecap="round" stroke-linejoin="round"/>
  <path d="M34.1 130.3L19.0667 93.1996L18.9333 92.8663C18.8667 92.7329 18.7667 92.5996 18.6333 92.5663C18.5 92.4996 18.3333 92.4996 18.2 92.5663L0 100.766V101.966L18.1333 93.7663L32.9 130.2L14.4667 138.533L0 109.666V112.133L13.7 139.533C13.8 139.733 14 139.833 14.2 139.833C14.2667 139.833 14.3667 139.833 14.4333 139.766L33.8333 131C34.1 130.9 34.2 130.6 34.1 130.3Z" fill="white"/>
  <path d="M20.8 91.8329L18.4333 86.5663C18.3 86.2996 18 86.1663 17.7 86.2996L16.1667 86.9996L15.1333 87.4663L0 94.2663V95.4663L16.2 88.1663L17.6333 87.5329L19.5667 91.7996L0 100.6V101.8L19.0667 93.1996L20.5 92.5329C20.6333 92.4663 20.7333 92.3663 20.8 92.2329C20.8667 92.0996 20.8667 91.9663 20.8 91.8329Z" fill="white"/>
  <path d="M16.4333 87.3996C16.3333 87.2663 16.2667 87.0996 16.1667 86.9663C14.9333 85.1996 12.8333 84.233 10.7 84.533L9.23333 81.2663L9.03333 80.7996C8.96667 80.6663 8.86667 80.5663 8.73333 80.4996C8.6 80.433 8.43333 80.4663 8.3 80.4996L3.5 82.6663C3.23333 82.7996 3.1 83.133 3.23333 83.3996L3.43333 83.8663L4.8 86.8663L0.633333 88.733L0 87.333V89.8996C0.0666667 89.933 0.1 89.9996 0.166667 89.9996C0.3 90.0663 0.466667 90.033 0.6 89.9996L5.76667 87.6663C6.03333 87.533 6.16667 87.1996 6.03333 86.9329L4.46667 83.433L8.23333 81.733L9.86667 85.333C9.96667 85.5663 10.2333 85.6996 10.4667 85.6329C12.2667 85.2663 14.0667 85.9663 15.1333 87.3996L0 94.2663V95.4663L16.2 88.1663C16.3333 88.0996 16.4333 87.9996 16.4667 87.833C16.5333 87.6996 16.5 87.533 16.4333 87.3996Z" fill="white"/>
  <path d="M2.59999 84.1996C2.53332 84.1996 2.46665 84.1996 2.39999 84.1663C2.26665 84.0996 2.16665 83.9996 2.09999 83.8663L1.29999 82.0996C1.16665 81.8329 1.29999 81.4996 1.56665 81.3663L8.56665 78.1996C8.83332 78.0663 9.16665 78.1996 9.29999 78.4663L10.1 80.2329C10.1667 80.3663 10.1667 80.5329 10.1 80.6663C10.0333 80.7996 9.93332 80.8996 9.79999 80.9663L2.79999 84.1329C2.73332 84.1996 2.66665 84.1996 2.59999 84.1996ZM2.49999 82.1663L2.83332 82.9329L8.83332 80.2329L8.49999 79.4663L2.49999 82.1663Z" fill="white"/>
  <path d="M369.4 86.5664L371.9 85.433L372.767 85.033L374.867 89.6997C374.9 89.7664 374.933 89.833 375 89.8664V87.333L373.533 84.0997C373.467 83.9664 373.367 83.8663 373.233 83.7997C373.1 83.733 372.933 83.7663 372.8 83.7997L371.8 84.2663L367.1 79.4997C367 79.3997 366.867 79.333 366.7 79.333C366.533 79.333 366.433 79.3997 366.3 79.4997L364.467 81.2997C364.267 81.4997 364.267 81.8663 364.467 82.0663L368.2 85.8664L368 85.9663C367.867 86.033 367.767 86.133 367.7 86.2663C367.667 86.3997 367.667 86.5664 367.7 86.6997L369.9 91.5664C368.2 92.9664 367.467 95.2664 368 97.3997L366.5 98.0664C366.233 98.1997 366.1 98.533 366.233 98.7997L368.6 104.066C368.667 104.2 368.767 104.3 368.9 104.366C368.967 104.4 369.033 104.4 369.1 104.4C369.167 104.4 369.267 104.4 369.333 104.333L370.767 103.666L374.967 112.066V109.666L371.833 103.4L374.967 102V100.633L369.367 103.166L367.433 98.8997L368.9 98.233L374.967 95.4997V94.2997L369.033 96.9663C368.667 95.1663 369.4 93.2997 370.9 92.1997C371.1 92.033 371.2 91.7664 371.067 91.533L368.933 86.7663L369.4 86.5664ZM365.667 81.6997L366.7 80.6663L370.733 84.7663L369.3 85.3997L365.667 81.6997Z" fill="white"/>
  <path d="M259.933 102.833L258.667 103.333C258.133 103.533 257.567 103.5 257.067 103.3C256.567 103.1 256.167 102.7 255.967 102.167C255.567 101.1 256.067 99.8999 257.133 99.4999L258.3 99.0332C258.433 99.4665 258.6 99.9332 258.767 100.367C259.167 101.233 259.533 102.067 259.933 102.833Z" stroke="white" stroke-width="1.1" stroke-miterlimit="10" stroke-linecap="round" stroke-linejoin="round"/>
  <path d="M265.767 96.1C265.767 96.1334 265.8 96.1667 265.8 96.2L265.767 96.1Z" stroke="white" stroke-width="1.1" stroke-miterlimit="10" stroke-linecap="round" stroke-linejoin="round"/>
  <path d="M351.9 62.4667L351.933 62.5667C351.933 62.5 351.9 62.4667 351.9 62.4667Z" stroke="white" stroke-width="1.1" stroke-miterlimit="10" stroke-linecap="round" stroke-linejoin="round"/>
  <path d="M363.133 60.2999C363.533 61.3665 363.033 62.5665 361.967 62.9665L360.767 63.4332C360.533 62.5999 360.267 61.6999 359.933 60.8332C359.767 60.3999 359.567 59.9665 359.367 59.5332L360.467 59.0999C361 58.8999 361.567 58.9332 362.067 59.1332C362.5 59.3665 362.9 59.7665 363.133 60.2999Z" stroke="white" stroke-width="1.1" stroke-miterlimit="10" stroke-linecap="round" stroke-linejoin="round"/>
  <path d="M344.733 67.4666C345.133 68.5332 344.6 69.7332 343.5 70.1666L278.033 95.7666C276.933 96.1999 275.7 95.6666 275.3 94.5999C275.1 94.0666 275.133 93.4999 275.367 92.9999C275.6 92.4999 276 92.0999 276.567 91.8999L342 66.3332C343.1 65.8999 344.333 66.3999 344.733 67.4666Z" stroke="white" stroke-width="1.1" stroke-miterlimit="10" stroke-linecap="round" stroke-linejoin="round"/>
  <path d="M278.033 95.7666L281.033 94.5999C284.6 104.4 285.6 112.733 283.2 113.667C282.367 114 281.2 113.367 279.9 112C277.467 109.467 274.467 104.433 271.867 98.1666C271.6 97.5332 271.333 96.8999 271.1 96.2666C270.833 95.5999 270.6 94.9666 270.367 94.3332C268.067 87.9666 266.833 82.2332 266.9 78.7332C266.933 76.8332 267.367 75.5999 268.2 75.2666C270.6 74.3332 275.5 81.1332 279.533 90.7332L276.533 91.8999C276 92.0999 275.567 92.5332 275.333 92.9999C275.1 93.4999 275.067 94.0666 275.267 94.5999C275.7 95.6666 276.933 96.1999 278.033 95.7666Z" stroke="white" stroke-width="1.1" stroke-miterlimit="10" stroke-linecap="round" stroke-linejoin="round"/>
  <path d="M283.233 113.667L278.633 115.467C277.167 116.033 274.733 113.667 272.133 109.533C272 109.333 271.867 109.133 271.767 108.9C271.667 108.733 271.567 108.533 271.467 108.367C271.433 108.3 271.367 108.2 271.333 108.133C271.233 107.967 271.167 107.833 271.067 107.667C270.7 107.033 270.333 106.333 269.967 105.633C269.867 105.467 269.767 105.267 269.7 105.1C269.533 104.767 269.367 104.433 269.2 104.1C269.1 103.9 269 103.667 268.867 103.433C268.8 103.3 268.733 103.167 268.667 103C268.533 102.7 268.367 102.367 268.233 102.033C268.1 101.7 267.933 101.367 267.8 101.033C267.633 100.667 267.5 100.3 267.333 99.9332C267.333 99.8999 267.3 99.8666 267.3 99.8333C267.2 99.5666 267.067 99.2999 266.967 99.0333L266.933 98.9666C266.8 98.6666 266.667 98.3333 266.567 97.9999C266.333 97.3666 266.1 96.7666 265.867 96.1666C265.867 96.1333 265.833 96.0999 265.833 96.0666C265.733 95.8333 265.667 95.5999 265.6 95.3666C265.5 95.1333 265.433 94.8999 265.367 94.6666C265.267 94.4333 265.2 94.1999 265.133 93.9332C264.933 93.3666 264.767 92.7999 264.6 92.2666C264.533 92.0332 264.467 91.7999 264.4 91.5666C264.333 91.3333 264.267 91.0999 264.2 90.8999C264 90.2333 263.833 89.5999 263.667 88.9999C263.533 88.4333 263.367 87.8333 263.267 87.2999C263.167 86.7999 263.067 86.2999 262.967 85.8333C262.933 85.6666 262.9 85.5333 262.867 85.3666C262.833 85.2333 262.833 85.1333 262.8 84.9999C262.767 84.8666 262.767 84.7666 262.733 84.6666C262.067 80.4333 262.333 77.5333 263.667 76.9999L268.267 75.1999C267.433 75.5333 267 76.7666 266.967 78.6666C266.9 82.1666 268.133 87.8999 270.433 94.2666C270.667 94.8999 270.9 95.5666 271.167 96.1999C271.433 96.8333 271.667 97.4999 271.933 98.0999C274.533 104.333 277.533 109.4 279.967 111.933C281.233 113.367 282.367 114 283.233 113.667Z" stroke="white" stroke-width="1.1" stroke-miterlimit="10" stroke-linecap="round" stroke-linejoin="round"/>
  <path d="M262.667 84.6999C262.7 84.7999 262.7 84.9333 262.733 85.0333C262.767 85.1666 262.767 85.2666 262.8 85.3999C262.833 85.5666 262.867 85.6999 262.9 85.8666C263 86.3333 263.1 86.8333 263.2 87.3333C263.333 87.8999 263.467 88.4666 263.6 89.0333C263.767 89.6666 263.933 90.2999 264.133 90.9333C264.2 91.1666 264.267 91.3999 264.333 91.5999C264.4 91.8333 264.467 92.0666 264.533 92.2999C264.7 92.8333 264.867 93.3999 265.067 93.9666C265.133 94.1999 265.233 94.4333 265.3 94.6999C265.367 94.9333 265.467 95.1666 265.533 95.3999C265.6 95.6333 265.7 95.8666 265.767 96.0999L265.8 96.1999C266.033 96.7999 266.267 97.4333 266.5 98.0333C266.633 98.3666 266.767 98.6666 266.867 98.9999L266.9 99.0666C267 99.3333 267.133 99.5999 267.233 99.8666C267.233 99.8999 267.267 99.9333 267.267 99.9666C267.433 100.333 267.567 100.7 267.733 101.067C267.867 101.4 268.033 101.733 268.167 102.067C268.3 102.4 268.467 102.7 268.6 103.033C268.667 103.167 268.733 103.3 268.8 103.467C268.9 103.7 269 103.9 269.133 104.133C269.3 104.467 269.467 104.8 269.633 105.133C269.733 105.3 269.8 105.5 269.9 105.667C270.267 106.367 270.633 107.067 271 107.7C271.1 107.867 271.167 108 271.267 108.167C271.3 108.233 271.367 108.333 271.4 108.4C271.5 108.567 271.6 108.767 271.7 108.933C271.833 109.133 271.967 109.367 272.067 109.567C271.867 109.967 271.6 110.233 271.267 110.367C270.233 110.767 268.767 109.7 267.167 107.667C266.7 107.067 266.233 106.4 265.8 105.667C265.733 105.567 265.667 105.433 265.6 105.333C265.533 105.2 265.433 105.067 265.367 104.9C265.267 104.733 265.167 104.567 265.1 104.4C265 104.233 264.9 104.033 264.8 103.867C264.7 103.7 264.633 103.533 264.533 103.367C264.433 103.2 264.333 103 264.267 102.833C264.2 102.7 264.133 102.533 264.033 102.4C263.9 102.1 263.733 101.8 263.6 101.467C263.4 101.033 263.2 100.567 263 100.1C262.833 99.7333 262.7 99.3666 262.533 98.9666C262.367 98.5333 262.2 98.0999 262.033 97.6666V97.6333C261.867 97.1333 261.7 96.6666 261.533 96.1999C261.5 96.0333 261.433 95.8999 261.4 95.7333C261.333 95.4999 261.267 95.2666 261.2 95.0333C261.133 94.8333 261.1 94.6333 261.033 94.4333C260.967 94.1999 260.9 93.9999 260.867 93.7666C260.767 93.3999 260.667 92.9999 260.6 92.6333C260.6 92.5999 260.6 92.5666 260.6 92.5666C260.567 92.3999 260.533 92.1999 260.5 92.0333C260.467 91.8999 260.433 91.7666 260.433 91.6333C260.4 91.4666 260.367 91.3333 260.367 91.1666C260.367 91.1333 260.367 91.1333 260.367 91.0999C260.333 90.9666 260.333 90.7999 260.3 90.6666C260.233 90.1999 260.167 89.7333 260.133 89.2999C259.9 86.7333 260.3 84.9666 261.333 84.5666C261.667 84.3999 262.133 84.4666 262.667 84.6999Z" stroke="white" stroke-width="1.1" stroke-miterlimit="10" stroke-linecap="round" stroke-linejoin="round"/>
  <path d="M265.867 105.633C266.333 106.367 266.8 107.033 267.233 107.633C267 107.933 266.733 108.133 266.4 108.267C264.6 108.967 261.967 106.633 259.933 102.833C259.533 102.067 259.133 101.233 258.8 100.367C258.633 99.9332 258.467 99.4666 258.333 99.0332C256.8 94.3332 257.067 90.1666 259.033 89.3999C259.367 89.2666 259.7 89.2332 260.067 89.2999C260.1 89.7332 260.167 90.1999 260.233 90.6666C260.267 90.7999 260.267 90.9666 260.3 91.0999C260.3 91.1332 260.3 91.1332 260.3 91.1666C260.333 91.2999 260.367 91.4666 260.367 91.6332C260.4 91.7666 260.4 91.8999 260.433 92.0332C260.467 92.1999 260.5 92.3999 260.533 92.5666C260.533 92.5999 260.533 92.6332 260.533 92.6332C260.6 92.9999 260.7 93.3666 260.8 93.7666C260.867 93.9666 260.9 94.1999 260.967 94.4332C261.033 94.6332 261.067 94.8332 261.133 95.0332C261.2 95.2666 261.267 95.4999 261.333 95.7332C261.367 95.8999 261.433 96.0332 261.467 96.1999C261.6 96.6666 261.767 97.1666 261.967 97.6332V97.6666C262.133 98.0999 262.267 98.5332 262.467 98.9666C262.633 99.3666 262.767 99.7332 262.933 100.1C263.133 100.567 263.333 101.033 263.533 101.467C263.667 101.8 263.833 102.1 263.967 102.4C264.033 102.567 264.1 102.7 264.2 102.833C264.3 103 264.4 103.2 264.467 103.367C264.567 103.533 264.633 103.7 264.733 103.867C264.833 104.067 264.933 104.233 265.033 104.4C265.133 104.567 265.233 104.733 265.3 104.9C265.4 105.033 265.467 105.167 265.533 105.333C265.7 105.4 265.8 105.533 265.867 105.633Z" stroke="white" stroke-width="1.1" stroke-miterlimit="10" stroke-linecap="round" stroke-linejoin="round"/>
  <path d="M348.067 66.1666C348.333 66.8333 348.567 67.4666 348.8 68.0999C351.1 74.4666 352.333 80.1999 352.267 83.6999C352.233 85.5999 351.8 86.8333 350.967 87.1666C348.567 88.0999 343.667 81.2999 339.633 71.6666L343.5 70.1666C344.6 69.7333 345.167 68.5333 344.733 67.4666C344.333 66.3999 343.1 65.8999 342 66.2999L338.133 67.7999C334.567 57.9999 333.567 49.6666 335.967 48.7333C336.8 48.3999 337.967 49.0333 339.267 50.3999C341.7 52.9333 344.7 57.9999 347.3 64.2333C347.533 64.8666 347.8 65.5333 348.067 66.1666Z" stroke="white" stroke-width="1.1" stroke-miterlimit="10" stroke-linecap="round" stroke-linejoin="round"/>
  <path d="M352.667 64.3666C352.8 64.6999 352.9 64.9999 353.033 65.3333C353.167 65.6666 353.267 65.9999 353.4 66.3333C353.533 66.6999 353.667 67.0666 353.8 67.4333C353.933 67.7666 354.033 68.1333 354.133 68.4666C354.233 68.7999 354.367 69.1333 354.467 69.4666C354.5 69.5999 354.567 69.7666 354.6 69.8999C354.667 70.1333 354.733 70.3666 354.8 70.5999C354.9 70.9666 355 71.3333 355.133 71.6999C355.2 71.8999 355.233 72.0999 355.3 72.2666C355.5 73.0333 355.7 73.7999 355.867 74.4999C355.9 74.6666 355.933 74.8333 355.967 74.9999C356 75.0999 356 75.1999 356.033 75.2666C356.067 75.4666 356.133 75.6666 356.167 75.8666C356.233 76.0999 356.267 76.3333 356.3 76.5666C357.2 81.3666 357.033 84.7666 355.533 85.3333L350.933 87.1333C351.767 86.7999 352.2 85.5666 352.233 83.6666C352.3 80.1666 351.067 74.4333 348.767 68.0666C348.533 67.4333 348.3 66.7666 348.033 66.1333C347.767 65.4666 347.533 64.8333 347.267 64.1999C344.667 57.9666 341.667 52.8999 339.233 50.3666C337.9 48.9999 336.767 48.3666 335.933 48.6999L340.533 46.8999C341.9 46.3666 344.067 48.3333 346.433 51.8999C346.5 51.9999 346.567 52.0999 346.633 52.1999C346.7 52.2999 346.767 52.3999 346.833 52.4999C346.933 52.6333 347 52.7666 347.1 52.8999C347.367 53.2999 347.6 53.7333 347.867 54.1999C348.167 54.6999 348.433 55.1999 348.733 55.7333C349.033 56.2999 349.333 56.8999 349.667 57.4999C349.767 57.6999 349.867 57.9333 349.967 58.1333C350.067 58.3333 350.167 58.5666 350.267 58.7666C350.5 59.2999 350.767 59.7999 351 60.3666C351.1 60.5999 351.2 60.8333 351.3 61.0666C351.4 61.2999 351.5 61.4999 351.6 61.7333C351.7 61.9666 351.8 62.1999 351.9 62.3999C351.9 62.4333 351.933 62.4666 351.933 62.4999C352.167 63.1333 352.433 63.7333 352.667 64.3666Z" stroke="white" stroke-width="1.1" stroke-miterlimit="10" stroke-linecap="round" stroke-linejoin="round"/>
  <path d="M356.167 62.3C356.333 62.7 356.467 63.0666 356.6 63.4666C356.767 63.9333 356.933 64.4 357.1 64.8666C357.2 65.2 357.3 65.5333 357.4 65.8333C357.5 66.1666 357.6 66.5 357.7 66.8333C357.767 67.0333 357.8 67.2333 357.867 67.4333C357.933 67.6333 357.967 67.8333 358 68.0333C358.033 68.2333 358.1 68.4 358.133 68.6C358.167 68.7666 358.2 68.9333 358.233 69.0666C358.267 69.2 358.3 69.3333 358.3 69.4666C358.467 70.3333 358.567 71.1333 358.633 71.8666C358.867 74.4333 358.467 76.2 357.433 76.6C357.1 76.7333 356.733 76.7 356.333 76.5666C356.3 76.3333 356.233 76.1 356.2 75.8666C356.167 75.6666 356.133 75.4666 356.067 75.2666C356.033 75.1666 356.033 75.1 356 75C355.967 74.8333 355.933 74.6666 355.9 74.5C355.733 73.7666 355.533 73.0333 355.333 72.2666C355.267 72.0666 355.233 71.8666 355.167 71.7C355.067 71.3333 354.967 70.9666 354.833 70.6C354.767 70.3666 354.7 70.1333 354.633 69.9C354.6 69.7666 354.533 69.6 354.5 69.4666C354.4 69.1333 354.3 68.8 354.167 68.4666C354.067 68.1333 353.933 67.7666 353.833 67.4333C353.7 67.0666 353.567 66.7 353.433 66.3333C353.3 66 353.2 65.6666 353.067 65.3333C352.933 65 352.833 64.7 352.7 64.3666C352.467 63.7333 352.2 63.1333 351.967 62.5333L351.933 62.4333C351.833 62.2 351.733 61.9666 351.633 61.7666C351.533 61.5333 351.433 61.3 351.333 61.1C351.233 60.8666 351.133 60.6333 351.033 60.4C350.8 59.8666 350.533 59.3333 350.3 58.7999C350.2 58.5666 350.1 58.3666 350 58.1666C349.9 57.9666 349.8 57.7333 349.7 57.5333C349.4 56.9333 349.1 56.3333 348.767 55.7666C348.467 55.2333 348.2 54.7333 347.9 54.2333C347.633 53.8 347.367 53.3666 347.133 52.9333C347.067 52.8 346.967 52.6666 346.867 52.5333C346.8 52.4333 346.733 52.3333 346.667 52.2333C346.6 52.1333 346.533 52.0333 346.467 51.9333C346.667 51.4 346.967 51.0333 347.367 50.8666C348.4 50.4666 349.867 51.5 351.467 53.5666C351.733 53.9 352 54.2666 352.267 54.6666C352.333 54.8 352.433 54.9 352.5 55.0333C352.567 55.1333 352.633 55.2333 352.7 55.3333C352.8 55.4666 352.867 55.6333 352.967 55.7666C353.1 55.9666 353.2 56.1666 353.333 56.3666C353.533 56.7 353.7 57.0333 353.9 57.3666C354 57.5333 354.1 57.7333 354.2 57.9333C354.3 58.1333 354.4 58.3333 354.5 58.5C354.6 58.7 354.7 58.9 354.8 59.1C354.867 59.2666 354.933 59.4 355.033 59.5666C355.233 60.0333 355.467 60.5 355.667 61L355.7 61.0333C355.8 61.4666 356 61.8666 356.167 62.3Z" stroke="white" stroke-width="1.1" stroke-miterlimit="10" stroke-linecap="round" stroke-linejoin="round"/>
</g>
</svg>